<svg id="Group_6116" data-name="Group 6116" xmlns="http://www.w3.org/2000/svg" xmlns:xlink="http://www.w3.org/1999/xlink" width="20.813" height="20.857" viewBox="0 0 20.813 20.857">
  <defs>
    <clipPath id="clip-path">
      <rect id="Rectangle_527" data-name="Rectangle 527" width="20.813" height="20.857" fill="#ad8c48"/>
    </clipPath>
  </defs>
  <g id="Group_6115" data-name="Group 6115" clip-path="url(#clip-path)">
    <path id="Path_3153" data-name="Path 3153" d="M1.486,17.745A3.1,3.1,0,0,1,.152,17.6L.14,17.535l.361-.1a1.346,1.346,0,0,1-.5-.639l.04-.045.307.218-.213-.48c.31.017.309.354.531.435a2.126,2.126,0,0,1-.135-.386c-.037-.246.079-.389.318-.334a10.354,10.354,0,0,0,1.45,0,.528.528,0,0,0,.525-.27c.133-.206.265-.414.391-.624a5.27,5.27,0,0,1,1.43-1.62A3.114,3.114,0,0,0,5.76,12.04c.332-.993.644-1.993.966-2.99.049-.151.1-.3.163-.449A1.727,1.727,0,0,1,8.225,7.564a3.583,3.583,0,0,0,.645-.207A1.173,1.173,0,0,0,9.557,6.5a.238.238,0,0,0-.1-.293,2.329,2.329,0,0,1-.8-1.228.385.385,0,0,0-.175-.234.9.9,0,0,1-.234-1.152.316.316,0,0,0,.01-.19,2.294,2.294,0,0,1,.383-1.8,1.894,1.894,0,0,1,.812-.586A.209.209,0,0,0,9.611.8a.811.811,0,0,1,.8-.8.794.794,0,0,1,.776.817A.17.17,0,0,0,11.323,1a1.988,1.988,0,0,1,1.25,2.253c-.017.156-.073.3.071.456a.5.5,0,0,1,.046.369.883.883,0,0,1-.43.712.208.208,0,0,0-.076.115,2.521,2.521,0,0,1-.895,1.36.187.187,0,0,0-.045.155,1.216,1.216,0,0,0,.826,1c.241.088.492.148.741.214a1.566,1.566,0,0,1,1.141,1.054c.288.84.54,1.692.815,2.536.115.355.249.7.373,1.056a3.057,3.057,0,0,0,1.095,1.464A5.694,5.694,0,0,1,17.721,15.5a3.087,3.087,0,0,0,.378.541.563.563,0,0,0,.336.148c.329.034.661.044.992.055a1.378,1.378,0,0,0,.348-.024c.166-.037.346-.074.459.062.128.154.048.338-.027.5-.014.031-.034.06-.072.128.247-.106.244-.424.553-.471l-.191.482.277-.176.039.041a1.288,1.288,0,0,1-.5.642l.368.09,0,.067a3.641,3.641,0,0,1-1.352.184l.137.128a1.263,1.263,0,0,1-.112,2.057,4.192,4.192,0,0,1-1.8.7,12.3,12.3,0,0,1-3.12.162c-.845-.058-1.69-.128-2.534-.2a7.985,7.985,0,0,1-.949-.118,4.007,4.007,0,0,0-1.28.023c-.805.089-1.61.185-2.418.242-.735.051-1.474.083-2.211.071a7.78,7.78,0,0,1-2.712-.44,3.724,3.724,0,0,1-.958-.532,1.225,1.225,0,0,1-.105-1.879c.07-.075.139-.152.225-.248m1.488-.718a20.063,20.063,0,0,1,3.433-.536,6.765,6.765,0,0,0,.812-.147.3.3,0,0,0,.168-.161c.16-.364.28-.747.465-1.1a3.528,3.528,0,0,0,.458-2.3c-.108-.621-.231-1.24-.347-1.86l-.054,0c-.026.074-.053.148-.078.223a8.226,8.226,0,0,1-1.492,2.888A17.761,17.761,0,0,1,3.98,16.288c-.327.256-.67.493-1.006.738M12.9,10.941c-.017.054-.035.1-.045.146-.105.5-.22,1-.311,1.51a3.463,3.463,0,0,0,.283,2.187c.229.472.413.965.625,1.446a.234.234,0,0,0,.147.116c.281.057.564.111.849.147.6.077,1.208.127,1.807.218.536.082,1.066.2,1.586.307-.026-.021-.067-.056-.111-.085a17.634,17.634,0,0,1-2.678-2.272,7.168,7.168,0,0,1-1.632-2.381c-.183-.438-.345-.885-.52-1.339m7.176,5.424a4.409,4.409,0,0,0-.469.18c-.072.037-.116.126-.172.192a.853.853,0,0,0,.236.095.383.383,0,0,0,.405-.467m-19.319,0a.38.38,0,0,0,.433.469.6.6,0,0,0,.188-.08c-.038-.063-.061-.154-.116-.182-.16-.082-.334-.139-.5-.206" transform="translate(0 0)" fill="#ad8c48"/>
  </g>
</svg>
