<svg xmlns="http://www.w3.org/2000/svg" width="26.358" height="26.311" viewBox="0 0 26.358 26.311">
  <g id="Group_5934" data-name="Group 5934" transform="translate(0 2.121) rotate(-5)">
    <path id="Path_3015" data-name="Path 3015" d="M0,0H24.335V24.283H0Z" fill="none"/>
    <path id="Path_3016" data-name="Path 3016" d="M8.194,13.5l2.88-2.875-6.3-6.278a1.024,1.024,0,0,0-1.638.274A4.075,4.075,0,0,0,3.93,9.256Zm6.9-1.839a4.952,4.952,0,0,0,5.362-1.4c1.943-1.94,2.32-4.724.824-6.217s-4.274-1.118-6.227.823a4.934,4.934,0,0,0-1.4,5.354l-9.219,9.2a1.014,1.014,0,0,0,1.435,1.432l6.3-6.268,6.288,6.278a1.014,1.014,0,0,0,1.435-1.432L13.6,13.157l1.5-1.493Z" transform="translate(0 0)" fill="#ad8c48"/>
  </g>
</svg>
