<svg xmlns="http://www.w3.org/2000/svg" width="17.504" height="17.504" viewBox="0 0 17.504 17.504">
  <g id="Layer_2" data-name="Layer 2" transform="translate(-3 -3)">
    <path id="gift" d="M4.595,14.932v4.687a.9.9,0,0,0,.895.885h5.465V14.932ZM12.549,20.5h5.465a.9.9,0,0,0,.895-.885V14.932h-6.36ZM19.629,6.977H17.839a2.742,2.742,0,0,0,.282-1.2A2.791,2.791,0,0,0,15.331,3a4.094,4.094,0,0,0-3.579,2.5A4.094,4.094,0,0,0,8.173,3,2.791,2.791,0,0,0,5.382,5.781a2.742,2.742,0,0,0,.282,1.2H3.875C3.389,6.977,3,7.551,3,8.251v3.822c0,.7.389,1.274.875,1.274h7.079V6.977h1.595v6.37h7.079c.486,0,.875-.574.875-1.274V8.251c0-.7-.389-1.274-.875-1.274Zm-11.455,0a1.2,1.2,0,1,1,0-2.382c1.361,0,2.13,1.4,2.509,2.382Zm7.157,0H12.822C13.2,6,13.969,4.595,15.331,4.595a1.2,1.2,0,1,1,0,2.382Z" transform="translate(0 0)" fill="#ad8c48"/>
  </g>
</svg>
