<svg id="Group_5986" data-name="Group 5986" xmlns="http://www.w3.org/2000/svg" xmlns:xlink="http://www.w3.org/1999/xlink" width="25.196" height="13.89" viewBox="0 0 25.196 13.89">
  <defs>
    <clipPath id="clip-path">
      <rect id="Rectangle_525" data-name="Rectangle 525" width="25.196" height="13.89" fill="#ad8c48"/>
    </clipPath>
  </defs>
  <g id="Group_5986-2" data-name="Group 5986" clip-path="url(#clip-path)">
    <path id="Path_3028" data-name="Path 3028" d="M125.476,0a10.428,10.428,0,0,1,.028,13.113A10.426,10.426,0,0,1,125.476,0" transform="translate(-112.891)" fill="#ad8c48"/>
    <path id="Path_3029" data-name="Path 3029" d="M66.176,37.138a10.379,10.379,0,0,1-6.265-10.665c.289.113.571.213.846.332a10.378,10.378,0,0,1,3.374,2.326.739.739,0,0,1,.211.493,11.719,11.719,0,0,0,1.8,7.393.6.6,0,0,1,.034.121" transform="translate(-54.831 -24.264)" fill="#ad8c48"/>
    <path id="Path_3030" data-name="Path 3030" d="M0,94.659a12.181,12.181,0,0,1,3.955-.274,2.2,2.2,0,0,1,1.959,1.267A10.633,10.633,0,0,0,10.7,99.974c.119.057.235.123.38.2A10.379,10.379,0,0,1,0,94.659" transform="translate(0 -86.469)" fill="#ad8c48"/>
    <path id="Path_3031" data-name="Path 3031" d="M179.939,94.478c-1.8,4.085-6.89,6.369-11.106,5.531.216-.1.368-.174.517-.249a11.653,11.653,0,0,0,5.127-4.965.827.827,0,0,1,.476-.378,10.886,10.886,0,0,1,4.986.061" transform="translate(-154.743 -86.299)" fill="#ad8c48"/>
    <path id="Path_3032" data-name="Path 3032" d="M166.665,37.1a10.859,10.859,0,0,0,1.655-4.378c.121-1,.07-2.019.112-3.029a.836.836,0,0,1,.161-.507,10.624,10.624,0,0,1,4.3-2.733,9.556,9.556,0,0,1-.8,5.274,10.357,10.357,0,0,1-5.424,5.372" transform="translate(-152.756 -24.244)" fill="#ad8c48"/>
  </g>
</svg>
