<svg id="Group_5932" data-name="Group 5932" xmlns="http://www.w3.org/2000/svg" width="23.027" height="21.001" viewBox="0 0 23.027 21.001">
  <path id="Path_3013" data-name="Path 3013" d="M0,0H23.027V21H0Z" transform="translate(0)" fill="none"/>
  <path id="Path_3014" data-name="Path 3014" d="M7.822,17.169a2.808,2.808,0,0,0,2.911-2.688,2.808,2.808,0,0,0-2.911-2.688A2.808,2.808,0,0,0,4.911,14.48,2.808,2.808,0,0,0,7.822,17.169Zm11.644-5.376H11.7v6.273H3.941V10H2V23.441H3.941V20.753H21.406v2.688h1.941V15.376A3.741,3.741,0,0,0,19.465,11.792Z" transform="translate(-1.16 -5.8)" fill="#ad8c48"/>
</svg>
