<svg xmlns="http://www.w3.org/2000/svg" width="20" height="20" viewBox="0 0 20 20">
  <g id="Layer_2" data-name="Layer 2" transform="translate(-2 -2)">
    <g id="info">
      <path id="Path_3151" data-name="Path 3151" d="M12,2A10,10,0,1,0,22,12,10,10,0,0,0,12,2Zm0,18a8,8,0,1,1,8-8A8,8,0,0,1,12,20Z" fill="#ad8c48"/>
      <circle id="Ellipse_223" data-name="Ellipse 223" cx="1" cy="1" r="1" transform="translate(11 7)" fill="#ad8c48"/>
      <path id="Path_3152" data-name="Path 3152" d="M12,10a1,1,0,0,0-1,1v5a1,1,0,0,0,2,0V11A1,1,0,0,0,12,10Z" fill="#ad8c48"/>
    </g>
  </g>
</svg>
