<svg id="Group_6120" data-name="Group 6120" xmlns="http://www.w3.org/2000/svg" xmlns:xlink="http://www.w3.org/1999/xlink" width="18.014" height="18.002" viewBox="0 0 18.014 18.002">
  <defs>
    <clipPath id="clip-path">
      <rect id="Rectangle_528" data-name="Rectangle 528" width="18.014" height="18.002" fill="#ad8c48"/>
    </clipPath>
  </defs>
  <g id="Group_6119" data-name="Group 6119" clip-path="url(#clip-path)">
    <path id="Path_3154" data-name="Path 3154" d="M1.285,9.674A8.967,8.967,0,0,1,9.393,1.56a11.211,11.211,0,0,0,3.326,6.477,11.212,11.212,0,0,0,6.5,3.339A8.985,8.985,0,0,1,11.1,19.487,11.167,11.167,0,0,0,7.774,13.01,11.191,11.191,0,0,0,1.285,9.674" transform="translate(-1.244 -1.51)" fill="#ad8c48"/>
    <path id="Path_3155" data-name="Path 3155" d="M298.425,8.727A10.793,10.793,0,0,1,289.692,0a9.027,9.027,0,0,1,8.733,8.727" transform="translate(-280.41)" fill="#ad8c48"/>
    <path id="Path_3156" data-name="Path 3156" d="M0,290.551c3.795.365,8.167,4.277,8.718,8.693A8.964,8.964,0,0,1,0,290.551" transform="translate(0 -281.242)" fill="#ad8c48"/>
  </g>
</svg>
